<svg width="368" height="16" viewBox="0 0 368 16" fill="none" xmlns="http://www.w3.org/2000/svg">
<path d="M0.899083 6.33028C-0.023081 6.9383 -0.277745 8.17875 0.330275 9.10092C0.938295 10.0231 2.17875 10.2777 3.10092 9.66972L0.899083 6.33028ZM367.101 9.66972C368.023 9.0617 368.278 7.82125 367.67 6.89908C367.062 5.97692 365.821 5.72226 364.899 6.33028L367.101 9.66972ZM3.10092 9.66972C8.90639 5.84194 14.5965 4 20.2 4C25.8035 4 31.4936 5.84194 37.2991 9.66972L39.5009 6.33028C33.1731 2.15806 26.7298 -1.78814e-07 20.2 -1.78814e-07C13.6702 -1.78814e-07 7.22694 2.15806 0.899083 6.33028L3.10092 9.66972ZM37.2991 9.66972C43.6269 13.8419 50.0702 16 56.6 16C63.1298 16 69.5731 13.8419 75.9009 9.66972L73.6991 6.33028C67.8936 10.1581 62.2035 12 56.6 12C50.9965 12 45.3064 10.1581 39.5009 6.33028L37.2991 9.66972ZM75.9009 9.66972C81.7064 5.84194 87.3965 4 93 4C98.6035 4 104.294 5.84194 110.099 9.66972L112.301 6.33028C105.973 2.15806 99.5298 -1.78814e-07 93 -1.78814e-07C86.4702 -1.78814e-07 80.0269 2.15806 73.6991 6.33028L75.9009 9.66972ZM110.099 9.66972C116.427 13.8419 122.87 16 129.4 16C135.93 16 142.373 13.8419 148.701 9.66972L146.499 6.33028C140.694 10.1581 135.004 12 129.4 12C123.796 12 118.106 10.1581 112.301 6.33028L110.099 9.66972ZM148.701 9.66972C154.506 5.84194 160.196 4 165.8 4C171.404 4 177.094 5.84194 182.899 9.66972L185.101 6.33028C178.773 2.15806 172.33 -1.78814e-07 165.8 -1.78814e-07C159.27 -1.78814e-07 152.827 2.15806 146.499 6.33028L148.701 9.66972ZM182.899 9.66972C189.227 13.8419 195.67 16 202.2 16C208.73 16 215.173 13.8419 221.501 9.66972L219.299 6.33028C213.494 10.1581 207.804 12 202.2 12C196.596 12 190.906 10.1581 185.101 6.33028L182.899 9.66972ZM221.501 9.66972C227.306 5.84194 232.996 4 238.6 4C244.204 4 249.894 5.84194 255.699 9.66972L257.901 6.33028C251.573 2.15806 245.13 -1.78814e-07 238.6 -1.78814e-07C232.07 -1.78814e-07 225.627 2.15806 219.299 6.33028L221.501 9.66972ZM255.699 9.66972C262.027 13.8419 268.47 16 275 16C281.53 16 287.973 13.8419 294.301 9.66972L292.099 6.33028C286.294 10.1581 280.604 12 275 12C269.396 12 263.706 10.1581 257.901 6.33028L255.699 9.66972ZM294.301 9.66972C300.106 5.84194 305.796 4 311.4 4C317.004 4 322.694 5.84194 328.499 9.66972L330.701 6.33028C324.373 2.15806 317.93 -1.78814e-07 311.4 -1.78814e-07C304.87 -1.78814e-07 298.427 2.15806 292.099 6.33028L294.301 9.66972ZM328.499 9.66972C334.827 13.8419 341.27 16 347.8 16C354.33 16 360.773 13.8419 367.101 9.66972L364.899 6.33028C359.094 10.1581 353.404 12 347.8 12C342.196 12 336.506 10.1581 330.701 6.33028L328.499 9.66972Z" fill="#E65000"/>
</svg>
